<?xml version="1.0" encoding="utf-8" standalone="no"?>
<!DOCTYPE svg PUBLIC "-//W3C//DTD SVG 1.1//EN"
  "http://www.w3.org/Graphics/SVG/1.1/DTD/svg11.dtd">
<!-- Created with matplotlib (https://matplotlib.org/) -->
<svg height="280.512pt" version="1.1" viewBox="0 0 371.52 280.512" width="371.52pt" xmlns="http://www.w3.org/2000/svg" xmlns:xlink="http://www.w3.org/1999/xlink">
 <defs>
  <style type="text/css">
*{stroke-linecap:butt;stroke-linejoin:round;}
  </style>
 </defs>
 <g id="figure_1">
  <g id="patch_1">
   <path d="M 0 280.512 
L 371.52 280.512 
L 371.52 0 
L 0 0 
z
" style="fill:#ffffff;"/>
  </g>
  <g id="axes_1">
   <g id="line2d_1">
    <path clip-path="url(#p9ebd47c107)" d="M 85.271688 78.417039 
L 23.432727 186.635221 
L 162.57039 140.256 
L 348.087273 202.094961 
L 239.869091 78.417039 
L 85.271688 78.417039 
" style="fill:none;stroke:#000000;stroke-linecap:square;stroke-width:2;"/>
   </g>
   <g id="line2d_2">
    <path clip-path="url(#p9ebd47c107)" d="M 162.57039 78.417039 
L 270.575437 113.510006 
L 282.806106 180.334572 
L 308.366581 156.699885 
L 280.670884 179.622831 
L 262.582645 104.375386 
L 195.465805 78.417039 
L 54.008537 133.127554 
L 60.780382 174.186002 
L 46.366183 146.501673 
L 162.058955 140.426478 
L 245.268558 84.587858 
L 188.4123 148.86997 
L 182.716284 78.417039 
L 177.319221 145.172277 
L 219.434847 78.417039 
L 283.981391 180.726334 
L 318.025148 167.738247 
L 306.832544 188.343385 
L 311.034295 159.748701 
L 224.366643 160.854751 
L 117.323208 78.417039 
L 60.080566 122.501503 
L 53.342932 176.665152 
L 38.138941 160.899346 
L 74.529971 169.602806 
L 150.179064 78.417039 
L 216.355155 158.184255 
L 293.517657 139.729686 
L 278.429263 178.875624 
L 290.481354 136.259625 
L 192.672048 150.289886 
L 120.881965 78.417039 
L 37.6634 161.731543 
L 31.947541 183.796949 
L 27.214303 180.017463 
L 34.708561 182.876609 
L 100.611707 78.417039 
L 143.612493 146.575299 
L 138.101998 78.417039 
L 132.286266 150.350708 
L 78.752705 89.825261 
L 284.844847 129.817903 
L 287.904753 182.034121 
L 308.857369 157.260785 
L 276.210157 178.135923 
L 238.858108 78.417039 
L 209.798121 155.998577 
L 232.536415 78.417039 
L 260.198657 172.798756 
L 297.826901 144.654536 
L 267.770361 175.322657 
L 257.609491 98.691782 
L 182.889272 78.417039 
L 67.358307 109.765456 
L 82.987731 166.783553 
L 63.290605 116.883934 
L 248.01584 87.727609 
L 226.051739 161.41645 
L 251.71021 91.949747 
L 51.928078 136.768357 
L 63.677812 173.220193 
L 51.426165 137.646705 
L 255.368534 96.130688 
L 232.02633 163.40798 
L 254.031707 94.602886 
L 55.833863 129.933233 
L 71.023889 170.7715 
L 57.889402 126.33604 
L 241.59217 80.386272 
L 211.341558 156.513056 
L 232.557489 78.417039 
L 257.998428 172.065346 
L 295.938371 142.496216 
L 263.810212 174.002607 
L 251.175786 91.338976 
L 207.037878 78.417039 
L 60.808541 121.227547 
L 73.157985 170.060135 
L 56.155598 129.370198 
L 259.926081 101.339313 
L 241.852846 166.683485 
L 265.137775 107.295536 
L 36.761275 163.310261 
L 41.91982 180.472857 
L 36.069411 164.521025 
L 155.138523 142.733289 
L 253.314779 93.783539 
L 210.898244 156.365285 
L 214.630558 78.417039 
L 218.483944 158.893851 
L 263.107309 104.975003 
L 191.282445 149.826685 
L 163.660413 78.417039 
L 136.361078 148.992437 
L 68.984959 106.918814 
L 144.545459 146.26431 
L 177.086541 78.417039 
L 215.15241 157.78334 
L 279.840874 124.099077 
L 248.349439 168.849016 
L 250.71338 90.810513 
L 130.642323 78.417039 
L 82.427925 83.393624 
L 115.648642 155.896583 
L 98.822308 78.417039 
L 79.369728 167.989554 
L 49.072272 141.766018 
L 103.276226 160.020721 
L 159.398018 78.417039 
L 213.632696 157.276769 
L 287.194192 132.502869 
L 266.324213 174.840608 
L 276.552458 120.340887 
L 54.667689 131.974038 
L 74.30294 169.678483 
L 65.08287 113.747471 
L 156.409414 78.417039 
L 282.57692 127.225987 
L 296.440897 184.879502 
L 317.659524 167.320391 
L 298.081486 185.426366 
L 288.71823 134.244626 
L 116.850384 78.417039 
L 78.074194 91.012653 
L 94.072778 163.088537 
L 68.796 107.249494 
L 248.170824 87.904734 
L 229.82831 162.675307 
L 257.268046 98.301559 
L 39.496038 158.524426 
L 45.112261 179.408709 
L 37.88219 161.348661 
L 151.321374 144.005672 
L 250.684552 90.777565 
L 204.830257 154.342622 
L 206.240551 78.417039 
L 207.668418 155.288676 
L 254.527384 95.169374 
L 172.007231 143.401614 
L 144.657894 78.417039 
L 111.462708 157.291894 
L 58.042425 126.06825 
L 113.018775 156.773205 
L 147.817091 78.417039 
L 177.488435 145.228682 
L 258.660599 99.893048 
L 215.29787 157.831827 
L 215.37807 78.417039 
L 215.458324 157.885311 
L 258.866899 100.128819 
L 258.866899 100.128819 
" style="fill:none;stroke:#1f77b4;stroke-linecap:square;stroke-width:0.3;"/>
   </g>
   <g id="legend_1">
    <g id="patch_2">
     <path d="M 306.2325 29.878125 
L 357.32 29.878125 
Q 359.32 29.878125 359.32 27.878125 
L 359.32 14.2 
Q 359.32 12.2 357.32 12.2 
L 306.2325 12.2 
Q 304.2325 12.2 304.2325 14.2 
L 304.2325 27.878125 
Q 304.2325 29.878125 306.2325 29.878125 
z
" style="fill:#ffffff;opacity:0.8;stroke:#cccccc;stroke-linejoin:miter;"/>
    </g>
    <g id="line2d_3">
     <path d="M 308.2325 20.298437 
L 328.2325 20.298437 
" style="fill:none;stroke:#1f77b4;stroke-linecap:square;stroke-width:0.3;"/>
    </g>
    <g id="line2d_4"/>
    <g id="text_1">
     <!-- 151 -->
     <defs>
      <path d="M 12.40625 8.296875 
L 28.515625 8.296875 
L 28.515625 63.921875 
L 10.984375 60.40625 
L 10.984375 69.390625 
L 28.421875 72.90625 
L 38.28125 72.90625 
L 38.28125 8.296875 
L 54.390625 8.296875 
L 54.390625 0 
L 12.40625 0 
z
" id="DejaVuSans-49"/>
      <path d="M 10.796875 72.90625 
L 49.515625 72.90625 
L 49.515625 64.59375 
L 19.828125 64.59375 
L 19.828125 46.734375 
Q 21.96875 47.46875 24.109375 47.828125 
Q 26.265625 48.1875 28.421875 48.1875 
Q 40.625 48.1875 47.75 41.5 
Q 54.890625 34.8125 54.890625 23.390625 
Q 54.890625 11.625 47.5625 5.09375 
Q 40.234375 -1.421875 26.90625 -1.421875 
Q 22.3125 -1.421875 17.546875 -0.640625 
Q 12.796875 0.140625 7.71875 1.703125 
L 7.71875 11.625 
Q 12.109375 9.234375 16.796875 8.0625 
Q 21.484375 6.890625 26.703125 6.890625 
Q 35.15625 6.890625 40.078125 11.328125 
Q 45.015625 15.765625 45.015625 23.390625 
Q 45.015625 31 40.078125 35.4375 
Q 35.15625 39.890625 26.703125 39.890625 
Q 22.75 39.890625 18.8125 39.015625 
Q 14.890625 38.140625 10.796875 36.28125 
z
" id="DejaVuSans-53"/>
     </defs>
     <g transform="translate(336.2325 23.798437)scale(0.1 -0.1)">
      <use xlink:href="#DejaVuSans-49"/>
      <use x="63.623047" xlink:href="#DejaVuSans-53"/>
      <use x="127.246094" xlink:href="#DejaVuSans-49"/>
     </g>
    </g>
   </g>
  </g>
 </g>
 <defs>
  <clipPath id="p9ebd47c107">
   <rect height="266.112" width="357.12" x="7.2" y="7.2"/>
  </clipPath>
 </defs>
</svg>
